<svg width="60" height="60" viewBox="0 0 60 60" fill="none" xmlns="http://www.w3.org/2000/svg">
<circle cx="30" cy="30" r="30" fill="#6256E1" fill-opacity="0.1"/>
<path d="M42.5 36.1501V39.9001C42.5015 40.2482 42.4301 40.5928 42.2907 40.9118C42.1512 41.2308 41.9467 41.5171 41.6901 41.7525C41.4336 41.9878 41.1308 42.167 40.801 42.2785C40.4712 42.39 40.1218 42.4315 39.775 42.4001C35.9286 41.9822 32.2338 40.6678 28.9875 38.5626C25.9673 36.6435 23.4067 34.0828 21.4875 31.0626C19.375 27.8016 18.0603 24.0889 17.65 20.2251C17.6188 19.8795 17.6599 19.5311 17.7707 19.2022C17.8814 18.8732 18.0595 18.571 18.2935 18.3146C18.5275 18.0583 18.8123 17.8535 19.1298 17.7133C19.4473 17.573 19.7905 17.5004 20.1375 17.5001H23.8875C24.4942 17.4942 25.0823 17.709 25.5422 18.1045C26.0022 18.5001 26.3026 19.0494 26.3875 19.6501C26.5458 20.8502 26.8394 22.0285 27.2625 23.1626C27.4307 23.61 27.4671 24.0963 27.3674 24.5637C27.2677 25.0312 27.0361 25.4603 26.7 25.8001L25.1125 27.3876C26.892 30.5171 29.4831 33.1082 32.6125 34.8876L34.2 33.3001C34.5399 32.964 34.969 32.7324 35.4364 32.6327C35.9039 32.533 36.3901 32.5694 36.8375 32.7376C37.9716 33.1608 39.15 33.4543 40.35 33.6126C40.9572 33.6983 41.5118 34.0041 41.9082 34.472C42.3046 34.9399 42.5152 35.5371 42.5 36.1501Z" stroke="#6379F4" stroke-width="2" stroke-linecap="round" stroke-linejoin="round"/>
</svg>
