<svg width="60" height="60" viewBox="0 0 60 60" fill="none" xmlns="http://www.w3.org/2000/svg">
<circle cx="30" cy="30" r="30" fill="#6256E1" fill-opacity="0.1"/>
<path d="M38.75 28.75H21.25C19.8693 28.75 18.75 29.8693 18.75 31.25V40C18.75 41.3807 19.8693 42.5 21.25 42.5H38.75C40.1307 42.5 41.25 41.3807 41.25 40V31.25C41.25 29.8693 40.1307 28.75 38.75 28.75Z" stroke="#6379F4" stroke-width="2" stroke-linecap="round" stroke-linejoin="round"/>
<path d="M23.75 28.75V23.75C23.75 22.0924 24.4085 20.5027 25.5806 19.3306C26.7527 18.1585 28.3424 17.5 30 17.5C31.6576 17.5 33.2473 18.1585 34.4194 19.3306C35.5915 20.5027 36.25 22.0924 36.25 23.75V28.75" stroke="#6379F4" stroke-width="2" stroke-linecap="round" stroke-linejoin="round"/>
</svg>
